HIERARCHY
ROOT Hips
{
  OFFSET 50.8196 100.481 12.1741
  CHANNELS 6 Xposition Yposition Zposition Zrotation Xrotation Yrotation
  JOINT spine
  {
    OFFSET 0 8.81705 0.507024
    CHANNELS 3 Zrotation Xrotation Yrotation
    JOINT spine1
    {
      OFFSET 0 10.7766 0
      CHANNELS 3 Zrotation Xrotation Yrotation
      JOINT spine2
      {
        OFFSET 0 10.3259 0
        CHANNELS 3 Zrotation Xrotation Yrotation
        JOINT Neck
        {
          OFFSET 0 26.511 1.26395
          CHANNELS 3 Zrotation Xrotation Yrotation
          JOINT Head
          {
            OFFSET 0 8.00966 0
            CHANNELS 3 Zrotation Xrotation Yrotation
            End Site
            {
              OFFSET 0 19.3879 -6.39386
            }
          }
        }
        JOINT RightShoulder
        {
          OFFSET -4.34795 11.1512 -0.605422
          CHANNELS 3 Zrotation Xrotation Yrotation
          JOINT RightArm
          {
            OFFSET 0 14.6258 0
            CHANNELS 3 Zrotation Xrotation Yrotation
            JOINT RightArmRoll
            {
              OFFSET 0 7.3834 0
              CHANNELS 3 Zrotation Xrotation Yrotation
              JOINT RightForeArm
              {
                OFFSET 0 21.5052 0
                CHANNELS 3 Zrotation Xrotation Yrotation
                JOINT RightForeArmRoll
                {
                  OFFSET 0 8.28532 0
                  CHANNELS 3 Zrotation Xrotation Yrotation
                  JOINT RightHand
                  {
                    OFFSET 0 16.6268 0
                    CHANNELS 3 Zrotation Xrotation Yrotation
                    End Site
                    {
                      OFFSET 0 0 0
                    }
                  }
                }
              }
            }
          }
        }
        JOINT LeftShoulder
        {
          OFFSET 4.34795 11.1512 -0.605422
          CHANNELS 3 Zrotation Xrotation Yrotation
          JOINT LeftArm
          {
            OFFSET 0 14.6258 0
            CHANNELS 3 Zrotation Xrotation Yrotation
            JOINT LeftArmRoll
            {
              OFFSET 0 7.3834 0
              CHANNELS 3 Zrotation Xrotation Yrotation
              JOINT LeftForeArm
              {
                OFFSET 0 21.5052 0
                CHANNELS 3 Zrotation Xrotation Yrotation
                JOINT LeftForeArmRoll
                {
                  OFFSET 0 8.28532 0
                  CHANNELS 3 Zrotation Xrotation Yrotation
                  JOINT LeftHand
                  {
                    OFFSET 0 16.6268 0
                    CHANNELS 3 Zrotation Xrotation Yrotation
                    End Site
                    {
                      OFFSET 0 0 0
                    }
                  }
                }
              }
            }
          }
        }
      }
    }
  }
  JOINT RightUpLeg
  {
    OFFSET -7.8151 -1.43309 -1.20217
    CHANNELS 3 Zrotation Xrotation Yrotation
    JOINT RightUpLegRoll
    {
      OFFSET 0 19.4959 0
      CHANNELS 3 Zrotation Xrotation Yrotation
      JOINT RightLeg
      {
        OFFSET 0 -24.1427 0
        CHANNELS 3 Zrotation Xrotation Yrotation
        JOINT RightLegRoll
        {
          OFFSET 0 24.2217 0
          CHANNELS 3 Zrotation Xrotation Yrotation
          JOINT RightFoot
          {
            OFFSET 0 20.1605 0
            CHANNELS 3 Zrotation Xrotation Yrotation
            JOINT RightToeBase
            {
              OFFSET 0 16.8532 0
              CHANNELS 3 Zrotation Xrotation Yrotation
              End Site
              {
                OFFSET 0.00714343 8.16187 -0.94078
              }
            }
          }
        }
      }
    }
  }
  JOINT LeftUpLeg
  {
    OFFSET 7.8151 -1.43309 -1.20217
    CHANNELS 3 Zrotation Xrotation Yrotation
    JOINT LeftUpLegRoll
    {
      OFFSET 0 19.496 0
      CHANNELS 3 Zrotation Xrotation Yrotation
      JOINT LeftLeg
      {
        OFFSET 0 24.1426 0
        CHANNELS 3 Zrotation Xrotation Yrotation
        JOINT LeftLegRoll
        {
          OFFSET 0 24.4456 0
          CHANNELS 3 Zrotation Xrotation Yrotation
          JOINT LeftFoot
          {
            OFFSET 0 19.9366 0
            CHANNELS 3 Zrotation Xrotation Yrotation
            JOINT LeftToeBase
            {
              OFFSET 0 16.8532 0
              CHANNELS 3 Zrotation Xrotation Yrotation
              End Site
              {
                OFFSET -0.0320138 8.16187 -0.94078
              }
            }
          }
        }
      }
    }
  }
}
MOTION
Frames: 9
Frame Time: 0.00208333
46.1849 100.119 12.3239 2.0953 -2.90078 23.3973 0.411829 -1.16333 0.176455 0.82552 1.68962 0.306262 0.822534 3.3346 0.292622 4.8477 17.086 12.3067 -27.3375 -3.72491 9.81272 52.3317 0.0891321 0.840231 149.558 33.8713 -92.908 -1.3697e-005 2.10748e-005 5.35308e-006 30.9847 70.3362 -20.023 -1.75579e-005 -1.57421e-006 -3.00406 8.02904 -4.95089 0.697304 -57.8312 -6.41701 3.94682 -86.3051 17.1784 48.7656 -7.95139e-016 -1.19271e-015 -6.36111e-015 -24.7392 73.2099 19.5019 3.51121e-006 1.31715e-005 2.99999 -8.02943 -4.95095 -0.697444 177.028 1.70761 0.893051 180 7.01524e-015 178.829 178.27 15.736 179.55 1.12461e-006 -6.64692e-007 0.339449 -23.042 72.4574 24.1693 8.16132 25.6591 -2.90311 -172.562 4.88989 0.0400287 4.54188e-006 -4.6773e-006 -1.18879 -0.598236 -17.8941 0.535658 -6.58399e-007 -4.47814e-006 -0.401606 20.6589 70.309 -21.6827 -8.17525 26.1643 2.28717 
46.137 100.122 12.3333 2.12365 -2.8808 23.4563 0.408629 -1.16411 0.176843 0.819118 1.68716 0.305935 0.81613 3.33213 0.292403 4.84168 17.0808 12.2969 -27.3245 -3.73135 9.80124 52.3729 0.0913838 0.836232 149.34 33.8397 -92.7552 -1.3697e-005 2.10748e-005 5.35308e-006 30.9241 70.4276 -20.0214 -1.75579e-005 -1.57421e-006 -3.00406 8.02904 -4.95089 0.697304 -57.85 -6.40173 3.93813 -86.3618 17.2341 48.765 -4.57205e-015 2.38542e-015 -0 -24.6629 73.2878 19.4901 3.51121e-006 1.31715e-005 2.99999 -8.02943 -4.95095 -0.697444 177.025 1.69281 0.893185 180 7.01525e-015 178.829 178.268 15.7054 179.551 1.12461e-006 -6.64692e-007 0.338621 -23.0385 72.4549 24.1657 8.16113 25.6563 -2.90591 -172.561 4.9637 0.0259854 4.54188e-006 -4.6773e-006 -1.18943 -0.603088 -17.9457 0.536182 -6.58399e-007 -4.47814e-006 -0.398081 20.5871 70.2347 -21.6057 -8.1759 26.1886 2.25645 
46.0866 100.122 12.3313 2.15205 -2.86145 23.5151 0.405378 -1.16473 0.17727 0.812616 1.68499 0.305616 0.809626 3.32996 0.292191 4.83869 17.0753 12.2866 -27.314 -3.7376 9.7898 52.4145 0.0932027 0.831884 149.124 33.8086 -92.6074 -1.3697e-005 2.10748e-005 5.35308e-006 30.8641 70.5187 -20.02 -1.75579e-005 -1.57421e-006 -3.00406 8.02904 -4.95089 0.697304 -57.8679 -6.38609 3.92917 -86.4191 17.289 48.7648 7.15625e-015 1.19271e-015 -3.18055e-015 -24.5867 73.366 19.4786 3.51121e-006 1.31715e-005 2.99999 -8.02943 -4.95095 -0.697444 177.022 1.67714 0.893205 180 7.01525e-015 178.83 178.265 15.6745 179.551 1.12461e-006 -6.64692e-007 0.337775 -23.0349 72.4522 24.1619 8.16092 25.6533 -2.90848 -172.56 5.03639 0.0120136 4.54188e-006 -4.6773e-006 -1.19003 -0.60789 -17.9969 0.536642 -6.58399e-007 -4.47814e-006 -0.394597 20.5163 70.1608 -21.5298 -8.17653 26.2127 2.22592 
46.038 100.127 12.3471 2.18048 -2.84255 23.5737 0.402093 -1.16522 0.177726 0.806043 1.68303 0.305301 0.803051 3.32801 0.291986 4.83781 17.0696 12.276 -27.3053 -3.74371 9.77838 52.4564 0.0947184 0.82729 148.909 33.7777 -92.4633 -1.3697e-005 2.10748e-005 5.35308e-006 30.8045 70.6096 -20.0188 -1.75579e-005 -1.57421e-006 -3.00406 8.02904 -4.95089 0.697304 -57.8851 -6.3702 3.92001 -86.477 17.3434 48.7649 2.98177e-015 -4.37326e-015 -0 -24.5103 73.4444 19.4672 3.51121e-006 1.31715e-005 2.99999 -8.02943 -4.95095 -0.697444 177.019 1.66087 0.893147 180 7.01525e-015 178.83 178.263 15.6433 179.551 1.12461e-006 -6.64692e-007 0.336918 -23.031 72.4493 24.1578 8.16071 25.6502 -2.91088 -172.559 5.10829 -0.00190904 4.54188e-006 -4.6773e-006 -1.19062 -0.612656 -18.0477 0.537057 -6.58399e-007 -4.47814e-006 -0.391141 20.4464 70.0871 -21.4547 -8.17713 26.2366 2.19552 
45.989 100.126 12.3435 2.2089 -2.82391 23.6322 0.398787 -1.16566 0.178197 0.79943 1.68119 0.304989 0.796435 3.32617 0.291783 4.83814 17.0638 12.2653 -27.2975 -3.74975 9.76698 52.4985 0.0960611 0.822557 148.696 33.7467 -92.3214 -1.3697e-005 2.10748e-005 5.35308e-006 30.7451 70.7003 -20.0177 -1.75579e-005 -1.57421e-006 -3.00406 8.02904 -4.95089 0.697304 -57.9019 -6.35417 3.91074 -86.5351 17.3975 48.7652 -2.88238e-014 1.66979e-014 -0 -24.4339 73.523 19.4558 3.51121e-006 1.31715e-005 2.99999 -8.02943 -4.95095 -0.697444 177.016 1.64424 0.893043 180 7.01525e-015 178.831 178.26 15.612 179.551 1.12461e-006 -6.64692e-007 0.336053 -23.0272 72.4464 24.1538 8.1605 25.6471 -2.91319 -172.558 5.17974 -0.0158049 4.54188e-006 -4.6773e-006 -1.1912 -0.617402 -18.0983 0.537446 -6.58399e-007 -4.47814e-006 -0.387701 20.3773 70.0137 -21.3805 -8.1777 26.2605 2.16519 
45.9442 100.13 12.3556 2.23729 -2.80535 23.6907 0.395477 -1.16607 0.178672 0.792807 1.67938 0.304677 0.78981 3.32436 0.291582 4.83877 17.0579 12.2544 -27.2901 -3.75577 9.75558 52.5406 0.0973604 0.817789 148.484 33.7153 -92.1803 -1.3697e-005 2.10748e-005 5.35308e-006 30.6858 70.7909 -20.0166 -1.75579e-005 -1.57421e-006 -3.00406 8.02904 -4.95089 0.697304 -57.9187 -6.33809 3.90144 -86.5934 17.4516 48.7656 4.17448e-015 -5.1684e-015 -6.36111e-015 -24.3573 73.6016 19.4444 3.51121e-006 1.31715e-005 2.99999 -8.02943 -4.95095 -0.697444 177.013 1.62753 0.892928 180 7.01525e-015 178.831 178.258 15.5806 179.551 1.12461e-006 -6.64692e-007 0.335187 -23.0232 72.4435 24.1496 8.16028 25.6439 -2.91547 -172.556 5.25108 -0.0296965 4.54188e-006 -4.6773e-006 -1.19177 -0.622141 -18.1489 0.53783 -6.58399e-007 -4.47814e-006 -0.384265 20.3087 69.9402 -21.3069 -8.17824 26.2844 2.13486 
45.9186 100.13 12.3496 2.26563 -2.78667 23.7493 0.392176 -1.16652 0.179139 0.786203 1.67751 0.304364 0.783204 3.32249 0.291379 4.8388 17.0521 12.2437 -27.2821 -3.76183 9.74417 52.5827 0.0987463 0.81309 148.271 33.6832 -92.0386 -1.3697e-005 2.10748e-005 5.35308e-006 30.6264 70.8817 -20.0155 -1.75579e-005 -1.57421e-006 -3.00406 8.02904 -4.95089 0.697304 -57.9356 -6.32209 3.8922 -86.6515 17.5058 48.766 1.05356e-014 -7.15625e-015 -0 -24.2807 73.6801 19.4328 3.51121e-006 1.31715e-005 2.99999 -8.02943 -4.95095 -0.697444 177.01 1.611 0.892835 180 7.01525e-015 178.831 178.256 15.5494 179.552 1.12461e-006 -6.64692e-007 0.334324 -23.0194 72.4406 24.1456 8.16006 25.6408 -2.9178 -172.555 5.32264 -0.0436062 4.54188e-006 -4.6773e-006 -1.19235 -0.62689 -18.1996 0.538227 -6.58399e-007 -4.47814e-006 -0.380821 20.2406 69.8666 -21.2337 -8.17876 26.3083 2.10449 
45.8651 100.133 12.3589 2.29389 -2.7677 23.808 0.388901 -1.16705 0.179587 0.779651 1.67549 0.304048 0.776649 3.32047 0.291172 4.83731 17.0464 12.2332 -27.2729 -3.76798 9.73275 52.6245 0.100349 0.808567 148.057 33.6499 -91.8951 -1.3697e-005 2.10748e-005 5.35308e-006 30.5667 70.9726 -20.0144 -1.75579e-005 -1.57421e-006 -3.00406 8.02904 -4.95089 0.697304 -57.9529 -6.30627 3.8831 -86.7092 17.5604 48.7662 -1.45113e-014 2.78299e-015 3.18055e-015 -24.2039 73.7585 19.4211 3.51121e-006 1.31715e-005 2.99999 -8.02943 -4.95095 -0.697444 177.007 1.5949 0.8928 180 7.01525e-015 178.832 178.253 15.5183 179.552 1.12461e-006 -6.64692e-007 0.33347 -23.0156 72.4378 24.1416 8.15985 25.6377 -2.92025 -172.554 5.39476 -0.0575567 4.54188e-006 -4.6773e-006 -1.19295 -0.631663 -18.2505 0.538657 -6.58399e-007 -4.47814e-006 -0.377357 20.1729 69.7928 -21.1608 -8.17925 26.3323 2.074 
45.8103 100.135 12.3674 2.32203 -2.74824 23.8668 0.385665 -1.16771 0.180002 0.773179 1.67323 0.303726 0.770175 3.31821 0.290958 4.83339 17.041 12.2231 -27.2617 -3.77429 9.72129 52.666 0.102297 0.804323 147.841 33.6151 -91.7482 -1.3697e-005 2.10748e-005 5.35308e-006 30.5064 71.0638 -20.0132 -1.75579e-005 -1.57421e-006 -3.00406 8.02904 -4.95089 0.697304 -57.9711 -6.29074 3.87422 -86.7663 17.6157 48.7662 -1.32417e-031 -7.95139e-016 -9.54166e-015 -24.127 73.8367 19.4091 3.51121e-006 1.31715e-005 2.99999 -8.02943 -4.95095 -0.697444 177.004 1.57949 0.892855 180 7.01525e-015 178.832 178.251 15.4874 179.552 1.12461e-006 -6.64692e-007 0.33263 -23.012 72.4351 24.1379 8.15965 25.6348 -2.92288 -172.552 5.46778 -0.0715704 4.54188e-006 -4.6773e-006 -1.19356 -0.636475 -18.3018 0.539141 -6.58399e-007 -4.47814e-006 -0.37386 20.1053 69.7185 -21.0881 -8.1797 26.3564 2.04333 
